<svg width="212" height="212" fill="none" xmlns="http://www.w3.org/2000/svg"><path fill-rule="evenodd" clip-rule="evenodd" d="M179.576 180.797c-19.051 18.743-45.187 30.307-74.024 30.307-28.773 0-54.858-11.513-73.898-30.184 43.227-34.044 104.651-34.085 147.922-.123zm1.22-1.22c18.744-19.051 30.308-45.187 30.308-74.025 0-28.765-11.507-54.843-30.168-73.882-34.06 43.343-34.106 104.651-.14 147.907zm-1.061-149.112c-43.332 34.13-104.953 34.088-148.24-.124C50.548 11.578 76.698 0 105.552 0c28.918 0 55.119 11.629 74.183 30.465zm-149.394 1.03C11.578 50.548 0 76.698 0 105.552c0 28.918 11.629 55.119 30.465 74.183 34.13-43.332 34.088-104.953-.124-148.24z" fill="#fff"/></svg>